<svg width="76" height="76" viewBox="0 0 76 76" fill="none" xmlns="http://www.w3.org/2000/svg">
    <circle cx="38" cy="38.0001" r="37.5" fill="#D3E6FF" stroke="#393939"/>
    <mask id="mask0_1501_740" style="mask-type:alpha" maskUnits="userSpaceOnUse" x="1" y="1" width="74" height="74">
        <circle cx="38" cy="38.0001" r="36.5" fill="#BD6565" stroke="#393939"/>
    </mask>
    <g mask="url(#mask0_1501_740)">
        <circle cx="18" cy="18.0001" r="3.5" fill="#D3E6FF" stroke="#393939"/>
        <circle cx="59" cy="59.0001" r="3.5" stroke="#126DE7" stroke-dasharray="2 2"/>
    </g>
    <rect x="29.5" y="31.5001" width="17" height="14" rx="1.5" fill="white" stroke="#393939"/>
    <circle cx="34.1667" cy="36.1667" r="1.16667" fill="#393939"/>
    <circle cx="42.278" cy="36.1667" r="1.16667" fill="#393939"/>
    <rect x="35.1113" y="39.6668" width="6.22222" height="2.33333" rx="1.16667" fill="#393939"/>
    <path d="M48 38.0001L53 40.8868V35.1133L48 38.0001ZM22 18.5001H56V17.5001H22V18.5001ZM60.5 23.0001V33.0001H61.5V23.0001H60.5ZM56 37.5001H52.5V38.5001H56V37.5001ZM60.5 33.0001C60.5 35.4853 58.4853 37.5001 56 37.5001V38.5001C59.0376 38.5001 61.5 36.0376 61.5 33.0001H60.5ZM56 18.5001C58.4853 18.5001 60.5 20.5148 60.5 23.0001H61.5C61.5 19.9625 59.0376 17.5001 56 17.5001V18.5001Z" fill="#393939"/>
    <path d="M53 59.0001L48 56.1133V61.8868L53 59.0001ZM50.1667 58.5001H48.2778V59.5001H50.1667V58.5001ZM46.3889 58.5001H44.5V59.5001H46.3889V58.5001ZM42.6111 58.5001H40.7222V59.5001H42.6111V58.5001ZM38.8333 58.5001H36.9444V59.5001H38.8333V58.5001ZM35.0556 58.5001H33.1667V59.5001H35.0556V58.5001ZM31.2778 58.5001H29.3889V59.5001H31.2778V58.5001ZM27.5 58.5001H25.6111V59.5001H27.5V58.5001ZM23.7222 58.5001H21.8333V59.5001H23.7222V58.5001ZM19.9444 58.5001H19V59.5001H19.9444V58.5001ZM19 58.5001C18.6988 58.5001 18.405 58.4705 18.1212 58.4144L17.9272 59.3954C18.2745 59.4641 18.6333 59.5001 19 59.5001V58.5001ZM16.5001 57.7424C16.0091 57.4137 15.5863 56.9909 15.2577 56.5L14.4267 57.0563C14.8281 57.6559 15.3442 58.172 15.9438 58.5734L16.5001 57.7424ZM14.5857 54.8788C14.5295 54.595 14.5 54.3012 14.5 54.0001H13.5C13.5 54.3667 13.536 54.7255 13.6047 55.0729L14.5857 54.8788ZM14.5 54.0001V53.0834H13.5V54.0001H14.5ZM14.5 51.2501V49.4167H13.5V51.2501H14.5ZM14.5 47.5834V45.7501H13.5V47.5834H14.5ZM14.5 43.9167V43.0001H13.5V43.9167H14.5ZM14.5 43.0001C14.5 42.6989 14.5295 42.4051 14.5857 42.1213L13.6047 41.9272C13.536 42.2746 13.5 42.6334 13.5 43.0001H14.5ZM15.2577 40.5001C15.5863 40.0092 16.0091 39.5864 16.5001 39.2577L15.9438 38.4268C15.3442 38.8281 14.8281 39.3443 14.4267 39.9438L15.2577 40.5001ZM18.1212 38.5857C18.405 38.5296 18.6988 38.5001 19 38.5001V37.5001C18.6333 37.5001 18.2745 37.536 17.9272 37.6047L18.1212 38.5857ZM19 38.5001H20V37.5001H19V38.5001ZM22 38.5001H24V37.5001H22V38.5001ZM26 38.5001H27V37.5001H26V38.5001Z" fill="#126DE7"/>
</svg>
